<?xml version="1.0" standalone="no"?>
<!DOCTYPE svg PUBLIC "-//W3C//DTD SVG 20010904//EN"
 "http://www.w3.org/TR/2001/REC-SVG-20010904/DTD/svg10.dtd">
<svg version="1.0" xmlns="http://www.w3.org/2000/svg"
 width="442.000000pt" height="403.525042pt" viewBox="0 0 442.000000 403.525042"
 preserveAspectRatio="xMidYMid meet">
<metadata>
Created by potrace 1.12, written by Peter Selinger 2001-2015
</metadata>
<g transform="translate(-11.000000,420.240129) scale(0.100000,-0.100000)"
fill="#000000" stroke="none">
<path d="M1923 4193 c-26 -5 -27 -15 -16 -175 l6 -98 116 0 c147 0 188 7 194
31 7 28 82 27 97 -1 8 -15 21 -20 55 -20 25 0 45 1 45 3 0 1 -22 61 -50 132
-27 71 -50 131 -50 132 0 2 -22 3 -49 3 l-49 0 -43 -115 c-42 -115 -59 -145
-59 -106 0 19 -6 21 -59 21 l-59 0 -7 100 c-8 109 -6 106 -72 93z m365 -120
c10 -31 10 -33 -13 -33 -22 0 -23 2 -12 35 6 19 11 34 12 32 1 -1 7 -17 13
-34z"/>
<path d="M2567 4093 c-12 -184 -14 -173 38 -173 l44 0 3 66 3 66 38 -66 c38
-65 40 -66 82 -66 l42 0 8 131 c4 72 5 132 3 134 -2 2 -22 7 -45 11 l-42 6 -3
-68 -3 -68 -44 67 c-41 63 -46 67 -81 67 l-37 0 -6 -107z"/>
<path d="M1686 4183 l-59 -4 8 -132 c4 -73 8 -134 10 -135 2 -2 53 -1 114 3
l111 8 0 35 0 35 -70 -7 c-66 -7 -70 -6 -70 13 0 17 9 21 60 27 58 6 60 8 60
35 0 29 0 29 -65 29 -50 0 -65 3 -65 14 0 11 19 17 70 22 69 6 70 7 70 35 0
29 0 29 -57 27 -32 -1 -84 -3 -117 -5z"/>
<path d="M2882 4170 c-17 -28 -15 -54 6 -73 39 -36 92 -10 92 43 0 48 -73 70
-98 30z m49 -33 c-1 -12 -15 -9 -19 4 -3 6 1 10 8 8 6 -3 11 -8 11 -12z"/>
<path d="M1512 4173 c-22 -4 -23 -7 -20 -100 3 -82 1 -97 -14 -107 -13 -8 -23
-8 -35 0 -14 8 -20 33 -27 103 l-9 91 -44 0 -45 0 7 -97 c4 -54 12 -106 17
-116 16 -31 70 -57 118 -57 59 0 91 17 114 60 16 31 18 48 11 133 -8 106 -5
103 -73 90z"/>
<path d="M3197 4092 c-63 -63 -77 -83 -77 -109 0 -30 0 -31 65 -38 60 -6 65
-8 65 -31 0 -21 5 -24 34 -24 28 0 35 5 40 25 4 16 11 22 21 19 12 -5 15 2 15
30 0 26 -4 36 -16 36 -14 0 -15 11 -9 85 l7 85 -34 0 c-29 0 -45 -11 -111 -78z
m63 -52 c0 -26 -4 -30 -26 -30 l-25 0 21 30 c12 17 23 30 26 30 2 0 4 -13 4
-30z"/>
<path d="M1135 4141 c-43 -11 -85 -41 -96 -68 -16 -42 -10 -116 11 -151 53
-87 198 -81 235 10 9 22 15 42 13 43 -2 2 -19 6 -40 10 -33 6 -37 4 -50 -22
-14 -29 -43 -40 -67 -24 -19 12 -27 97 -11 116 16 20 60 19 75 -1 10 -15 15
-15 48 3 l37 19 -32 31 c-36 34 -77 45 -123 34z"/>
<path d="M3561 4126 c-21 -12 -50 -50 -51 -67 0 -4 16 -10 36 -14 26 -4 41 -2
53 9 10 9 25 16 34 16 25 0 21 -37 -5 -51 -76 -41 -163 -127 -145 -145 4 -4
220 -35 223 -31 1 1 5 16 8 33 6 27 4 32 -16 38 -13 3 -33 6 -45 6 -33 0 -28
11 20 45 23 17 47 41 53 54 15 30 4 70 -27 92 -33 25 -108 33 -138 15z"/>
<path d="M804 4081 c-17 -11 -36 -34 -43 -51 -10 -30 -8 -35 23 -66 29 -29 41
-34 79 -34 58 0 82 -24 42 -42 -24 -11 -29 -10 -45 9 -15 19 -22 21 -54 12
-74 -20 -21 -89 69 -89 50 0 77 10 113 43 43 40 17 137 -38 137 -32 0 -32 17
0 24 34 6 37 21 14 54 -13 18 -25 22 -72 22 -38 0 -67 -6 -88 -19z m94 -58 c2
-9 -7 -13 -27 -13 -21 0 -31 5 -31 16 0 19 51 16 58 -3z"/>
<path d="M3825 4091 c-11 -5 -28 -17 -37 -28 -17 -19 -17 -20 18 -37 33 -15
37 -15 48 -1 7 10 18 13 29 10 13 -6 14 -11 6 -27 -6 -11 -17 -17 -24 -14 -8
3 -17 -7 -24 -26 -13 -38 -13 -41 -2 -34 19 12 41 -7 41 -35 0 -24 -4 -29 -24
-29 -15 0 -27 7 -31 19 -3 11 -19 21 -37 25 -45 9 -48 8 -48 -17 0 -59 119
-110 181 -77 20 11 49 60 49 83 0 7 -8 22 -18 32 -17 18 -16 20 5 41 30 30 29
47 -4 83 -30 32 -92 47 -128 32z"/>
<path d="M556 4020 c-54 -21 -100 -41 -102 -43 -3 -3 91 -245 99 -253 3 -4
206 72 213 79 4 3 -15 67 -20 67 -1 0 -31 -11 -66 -25 -76 -30 -67 -28 -74 -9
-4 11 9 22 52 41 31 13 58 26 60 28 3 3 -15 43 -23 53 -1 2 -29 -9 -61 -23
-43 -19 -59 -22 -65 -13 -11 18 -5 23 61 47 33 12 60 23 60 25 0 13 -23 66
-28 65 -4 0 -51 -18 -106 -39z"/>
<path d="M4054 3996 c-56 -56 -39 -138 32 -152 29 -5 32 -9 23 -25 -13 -25
-36 -24 -44 0 -3 11 -16 23 -28 26 -64 19 -60 20 -54 -14 4 -18 12 -38 19 -44
19 -18 83 -47 105 -47 85 0 165 177 108 240 -23 26 -74 50 -106 50 -11 0 -36
-15 -55 -34z m102 -80 c-5 -19 -13 -26 -31 -26 -21 0 -25 5 -25 30 0 35 28 56
49 35 9 -8 11 -23 7 -39z"/>
<path d="M3370 3986 c0 -28 4 -36 18 -36 9 0 33 -3 53 -6 34 -6 36 -5 43 27 3
17 5 33 4 35 -2 1 -29 5 -60 9 l-58 7 0 -36z"/>
<path d="M2485 3321 c-50 -9 -114 -42 -159 -81 -47 -41 -105 -42 -151 -1 -82
71 -247 96 -341 51 -59 -29 -84 -69 -84 -136 0 -42 6 -60 38 -107 20 -31 43
-57 51 -57 11 0 9 6 -6 23 -78 85 -44 180 73 205 65 14 108 3 159 -41 32 -28
37 -37 31 -60 l-6 -26 -63 29 c-66 32 -151 42 -141 17 7 -19 104 -75 143 -83
21 -4 36 -14 38 -26 7 -23 21 -24 19 -1 -2 26 34 27 63 3 13 -11 21 -23 18
-27 -4 -3 -13 0 -21 6 -9 8 -16 8 -20 2 -4 -6 -14 -7 -22 -4 -23 9 -9 -35 23
-68 17 -19 27 -46 35 -95 6 -38 17 -93 25 -122 13 -49 16 -53 40 -50 38 4 40
27 4 39 -28 10 -50 43 -37 56 3 3 21 -5 40 -17 32 -19 37 -20 42 -6 9 23 44
40 56 28 13 -13 -6 -49 -32 -57 -11 -4 -20 -15 -20 -26 0 -16 5 -19 23 -14 22
6 22 6 -2 -15 -24 -20 -31 -21 -76 -5 l-20 7 20 -17 c11 -9 33 -15 49 -13 44
4 67 43 71 119 6 106 32 210 61 241 15 14 23 31 20 37 -10 16 -43 13 -50 -4
-3 -8 -12 -15 -21 -15 -12 0 -9 7 11 25 21 20 34 24 58 20 39 -7 138 46 174
93 l25 32 -24 0 c-39 0 -100 -20 -141 -46 -41 -26 -58 -24 -58 5 0 41 105 100
179 101 54 0 121 -31 156 -72 35 -41 35 -109 0 -143 -16 -17 -19 -25 -10 -25
8 0 27 17 42 37 24 31 28 46 28 103 0 58 -4 72 -28 103 -16 21 -46 46 -67 57
-43 22 -153 33 -215 21z"/>
<path d="M2095 3030 c-3 -5 3 -10 15 -10 12 0 18 5 15 10 -3 6 -10 10 -15 10
-5 0 -12 -4 -15 -10z"/>
<path d="M2090 2898 c0 -52 -27 -154 -56 -210 l-26 -51 34 -25 c103 -79 172
-191 191 -311 6 -39 14 -71 17 -71 3 0 4 60 2 133 -4 115 -7 135 -24 154 -22
23 -18 37 12 53 15 8 24 6 40 -10 20 -20 20 -23 6 -45 -13 -19 -16 -53 -16
-155 0 -80 4 -130 10 -130 6 0 10 21 10 48 0 109 52 224 140 312 l60 60 -25
36 c-30 45 -43 89 -51 177 -4 37 -10 67 -14 67 -12 0 -32 -87 -40 -173 -10
-113 -51 -158 -122 -134 -37 12 -75 93 -83 177 -9 78 -28 130 -49 130 -11 0
-16 -10 -16 -32z"/>
<path d="M2292 2748 c-19 -19 -14 -30 8 -18 11 6 20 15 20 20 0 14 -14 12 -28
-2z"/>
<path d="M2200 2745 c0 -6 56 -35 67 -35 4 0 -5 9 -22 20 -29 19 -45 25 -45
15z"/>
<path d="M2250 2660 c0 -5 7 -10 15 -10 8 0 15 5 15 10 0 6 -7 10 -15 10 -8 0
-15 -4 -15 -10z"/>
<path d="M2112 2304 c51 -48 91 -108 121 -182 14 -34 24 -62 22 -62 -2 0 -22
26 -43 58 -43 63 -107 125 -165 161 -62 38 -51 19 17 -31 55 -40 186 -191 186
-215 0 -4 -28 20 -62 53 -78 75 -116 103 -195 143 -67 33 -73 35 -73 23 0 -4
16 -14 35 -21 58 -21 175 -105 245 -175 35 -36 59 -66 53 -66 -6 0 -17 7 -24
16 -77 93 -294 178 -479 189 l-105 6 273 -115 c151 -64 277 -116 281 -116 4 0
18 -11 31 -25 35 -37 99 -30 111 13 3 7 42 29 89 49 141 59 352 150 395 169
l40 18 -90 6 c-86 6 -96 5 -211 -32 -117 -37 -123 -40 -195 -108 -41 -38 -78
-69 -82 -70 -12 0 83 108 134 155 50 45 157 115 176 115 8 0 11 4 8 10 -4 6
-25 0 -54 -14 -78 -40 -160 -110 -244 -211 l-25 -29 3 49 c3 64 50 168 98 219
39 41 43 63 6 30 -38 -34 -82 -106 -105 -173 -13 -36 -23 -59 -23 -50 -2 57
-136 249 -173 249 -7 0 4 -16 24 -36z"/>
<path d="M2463 2263 c-69 -52 -130 -121 -162 -181 -24 -46 -3 -32 32 20 41 61
127 147 177 177 21 12 28 21 18 21 -9 0 -38 -16 -65 -37z"/>
<path d="M2511 1996 c-11 -13 -10 -17 10 -25 13 -5 41 -23 63 -40 21 -17 43
-31 49 -31 6 0 7 -3 4 -7 -4 -3 31 -45 77 -92 46 -47 118 -127 158 -176 98
-119 184 -195 270 -240 38 -20 72 -35 74 -32 3 2 -12 17 -33 33 -95 72 -200
173 -286 277 -109 129 -208 227 -231 227 -9 0 -16 4 -16 8 0 5 -25 26 -55 47
-31 21 -59 44 -64 52 -6 12 -9 12 -20 -1z"/>
<path d="M2420 1915 c-13 -14 -29 -25 -35 -25 -6 0 -22 -12 -36 -26 -31 -33
-114 -89 -164 -110 -21 -9 -71 -18 -110 -21 l-72 -6 -50 -101 c-28 -55 -59
-120 -69 -144 l-19 -42 -75 39 c-42 21 -93 50 -114 65 -21 14 -44 26 -50 26
-6 0 -27 8 -46 18 -19 11 -49 22 -67 25 -34 7 -38 0 -57 -86 -10 -43 -62 -148
-93 -187 -48 -61 -166 -174 -238 -229 -83 -62 -215 -180 -215 -192 0 -10 85
45 206 133 95 68 234 209 293 296 24 35 44 69 45 75 3 10 21 56 54 129 6 15
13 14 72 -10 36 -15 88 -40 115 -55 69 -40 140 -67 174 -67 24 0 32 8 55 52
15 29 36 79 47 113 26 76 40 91 92 100 23 4 50 9 60 11 10 2 44 16 75 30 31
14 66 30 77 34 28 12 157 121 150 128 -3 3 5 16 17 29 12 13 17 23 11 23 -5 0
-20 -11 -33 -25z"/>
<path d="M2588 1884 c-3 -5 -13 -45 -23 -89 -13 -58 -15 -98 -10 -145 4 -36 9
-80 11 -99 5 -46 21 -93 50 -143 13 -24 30 -57 38 -73 15 -32 87 -111 127
-139 23 -16 22 -16 -31 -16 -56 0 -57 1 -222 93 -21 11 -38 24 -38 29 0 4 -5
8 -12 8 -6 0 -20 8 -31 18 -19 16 -19 16 -12 -8 9 -30 30 -55 117 -140 36 -36
74 -80 83 -99 l17 -34 -51 6 c-28 3 -66 12 -83 20 -69 30 -84 37 -106 53 l-23
17 21 -36 c12 -21 35 -45 51 -54 16 -10 29 -20 29 -23 0 -19 192 -88 265 -95
265 -26 375 -31 423 -19 22 6 21 7 -14 46 -19 22 -33 42 -30 45 2 3 33 -9 68
-27 111 -56 165 -71 283 -76 61 -3 134 -2 163 3 l53 8 -77 55 c-42 30 -82 60
-88 65 -6 6 -33 26 -61 45 -27 18 -52 37 -55 40 -3 4 -84 59 -180 123 -258
173 -269 181 -340 249 -154 149 -224 236 -282 352 -14 27 -27 45 -30 40z"/>
<path d="M2169 1685 c-14 -8 -39 -16 -55 -19 -23 -5 -80 -24 -92 -31 -3 -3 35
-91 69 -158 16 -31 29 -63 29 -70 0 -16 -72 -47 -111 -47 l-30 0 18 -31 c10
-17 33 -45 51 -62 18 -18 49 -56 69 -84 20 -29 38 -53 40 -53 10 0 74 153 92
218 16 59 20 102 19 213 l-1 139 -36 0 c-20 -1 -48 -7 -62 -15z"/>
<path d="M1553 1514 c-3 -10 7 -43 25 -79 37 -73 39 -82 12 -90 -32 -10 -24
-46 21 -93 l41 -42 -36 -32 c-20 -17 -36 -38 -36 -46 0 -7 -4 -12 -8 -10 -4 2
-43 16 -87 33 -44 16 -86 35 -93 42 -18 18 -19 17 -37 -17 -12 -23 -14 -45 -9
-91 8 -71 12 -67 -140 -147 l-101 -53 95 6 c123 7 159 11 195 25 17 6 45 13
64 16 18 2 75 24 127 49 153 74 275 211 308 348 6 25 4 27 -24 27 -41 0 -132
47 -222 115 -40 30 -77 55 -81 55 -4 0 -10 -7 -14 -16z"/>
<path d="M3245 1345 c11 -8 25 -18 31 -24 6 -5 26 -17 45 -26 19 -10 36 -21
39 -24 3 -4 30 -24 60 -46 30 -22 57 -42 60 -46 3 -3 25 -19 50 -34 25 -15 47
-31 50 -35 3 -3 31 -21 63 -39 l57 -32 0 25 c0 21 -5 26 -26 26 -37 0 -60 15
-134 89 -72 71 -175 137 -254 164 -60 20 -67 21 -41 2z"/>
<path d="M110 359 l0 -192 61 7 c34 3 70 6 80 6 16 0 19 8 19 41 0 41 -1 41
-30 36 -29 -6 -30 -5 -30 28 0 31 3 35 25 35 23 0 25 4 25 40 0 36 -2 40 -25
40 -21 0 -25 5 -25 30 0 25 4 30 25 30 22 0 25 4 25 39 l0 38 -52 7 c-29 3
-63 6 -75 6 l-23 0 0 -191z"/>
<path d="M4408 543 l-28 -4 0 -180 c0 -179 0 -179 23 -179 12 0 46 -3 75 -6
l52 -7 0 42 c0 37 -2 41 -25 41 l-25 0 0 150 c0 168 7 155 -72 143z"/>
<path d="M4310 534 c-8 -1 -36 -6 -62 -9 l-48 -6 0 -163 0 -163 61 -7 c102
-10 99 -11 99 34 0 38 -2 40 -30 40 -28 0 -30 3 -30 35 0 31 3 35 25 35 22 0
25 4 25 35 0 31 -3 35 -25 35 -20 0 -25 5 -25 25 0 20 6 27 30 32 27 5 30 9
30 44 0 40 -5 43 -50 33z"/>
<path d="M290 354 l0 -177 53 7 c28 3 62 6 75 6 19 0 22 5 22 41 0 41 -1 41
-30 36 l-30 -6 0 134 0 135 -45 0 -45 0 0 -176z"/>
<path d="M560 508 c-31 -17 -45 -55 -36 -101 5 -27 16 -42 44 -59 l37 -23 -42
-3 c-38 -3 -43 -6 -43 -28 0 -37 26 -81 52 -88 42 -11 93 -6 118 11 35 23 40
33 40 74 0 44 -26 80 -75 103 -40 19 -54 41 -36 59 8 8 11 4 11 -16 0 -26 2
-27 51 -27 48 0 51 1 45 23 -3 12 -6 28 -6 34 0 35 -115 64 -160 41z m76 -234
c-6 -16 -8 -16 -16 -4 -6 8 -10 24 -10 35 0 18 1 18 16 3 10 -10 14 -23 10
-34z"/>
<path d="M4038 513 c-21 -2 -38 -7 -38 -11 0 -4 -9 -70 -20 -146 -11 -77 -19
-141 -17 -142 1 -1 23 -5 48 -9 46 -7 46 -7 52 25 7 35 27 32 27 -4 0 -19 7
-25 38 -30 64 -10 64 -11 57 42 -8 61 -34 219 -41 255 -6 29 -11 30 -106 20z
m44 -153 c2 -22 0 -40 -4 -40 -5 0 -8 18 -8 40 0 22 2 40 4 40 2 0 6 -18 8
-40z"/>
<path d="M3863 503 l-43 -4 0 -140 c0 -111 3 -139 14 -139 7 0 28 -3 45 -6
l31 -6 0 61 0 61 30 0 c27 0 30 3 30 30 0 27 -3 30 -30 30 -25 0 -30 4 -30 25
0 22 4 25 35 25 33 0 35 2 35 35 0 39 1 38 -117 28z"/>
<path d="M771 474 c-18 -23 -21 -40 -21 -118 1 -100 7 -115 58 -135 28 -12 40
-12 75 -1 72 23 77 32 77 131 0 48 -3 95 -6 104 -10 25 -59 45 -113 45 -42 0
-53 -4 -70 -26z m99 -112 c0 -37 -5 -74 -10 -82 -7 -10 -10 13 -10 73 0 56 4
86 10 82 6 -3 10 -36 10 -73z"/>
<path d="M1025 483 c-50 -13 -60 -76 -17 -115 15 -14 34 -28 42 -31 8 -3 -4
-6 -27 -6 -37 -1 -43 -4 -43 -22 0 -23 18 -60 34 -71 19 -13 105 -9 141 6 33
14 35 18 35 60 0 43 -2 47 -42 68 l-43 23 43 3 c45 3 47 7 32 46 -13 36 -90
55 -155 39z m65 -65 c0 -16 -3 -19 -11 -11 -6 6 -8 16 -5 22 11 17 16 13 16
-11z m10 -124 c0 -8 -4 -14 -10 -14 -5 0 -10 9 -10 21 0 11 5 17 10 14 6 -3
10 -13 10 -21z"/>
<path d="M3610 422 c-6 -38 -17 -91 -25 -118 l-13 -49 -3 45 c-2 25 -2 66 0
92 3 68 -20 88 -101 88 -113 0 -108 5 -108 -126 l0 -114 50 0 50 0 0 50 c0 28
5 50 10 50 6 0 10 -22 10 -49 0 -48 0 -48 38 -55 20 -3 65 -6 100 -6 55 0 62
2 62 20 0 28 18 25 26 -5 6 -22 11 -25 55 -25 27 0 49 3 49 6 0 3 -6 32 -14
63 -8 31 -20 89 -26 129 l-12 72 -68 0 -68 0 -12 -68z m-130 -12 c0 -11 -4
-20 -10 -20 -5 0 -10 9 -10 20 0 11 5 20 10 20 6 0 10 -9 10 -20z m216 -78
c-11 -10 -15 4 -8 28 l7 25 3 -23 c2 -13 1 -26 -2 -30z"/>
<path d="M1210 361 l0 -121 45 0 45 0 1 38 0 37 16 -38 c15 -36 18 -38 46 -33
16 3 36 6 43 6 11 0 14 23 14 110 l0 110 -40 0 -40 0 0 -42 -1 -43 -21 40
c-11 22 -21 41 -22 42 -1 1 -21 5 -44 9 l-42 7 0 -122z"/>
<path d="M1450 360 l0 -110 93 0 c115 0 167 8 167 26 0 8 7 14 15 14 8 0 15
-7 15 -15 0 -11 12 -15 50 -15 28 0 50 3 50 8 0 6 -31 125 -46 175 -4 14 -17
17 -74 17 l-69 0 -11 -57 c-19 -94 -28 -129 -29 -115 -1 6 -14 12 -31 12 -23
0 -30 4 -30 20 0 15 7 20 25 20 18 0 25 5 25 20 0 15 -7 20 -25 20 -16 0 -25
6 -25 15 0 10 10 15 30 15 25 0 30 4 30 24 0 21 -5 24 -61 30 -108 11 -99 21
-99 -104z"/>
<path d="M3170 433 l0 -38 -21 33 c-18 27 -27 32 -60 32 l-39 0 -1 -97 c-1
-105 -1 -105 -39 25 l-22 72 -64 0 -63 0 -15 -52 c-8 -29 -19 -69 -25 -88 -8
-29 -9 -31 -10 -10 -2 35 -11 46 -51 63 l-35 15 38 1 c32 1 37 4 37 25 0 32
-54 51 -122 43 -57 -7 -78 -21 -78 -51 0 -31 13 -46 46 -56 29 -8 29 -8 -8 -9
-33 -1 -38 -4 -38 -25 0 -37 35 -56 102 -56 31 0 68 4 82 10 17 6 26 6 26 0 0
-17 97 -12 104 5 7 19 26 20 26 1 0 -15 61 -26 141 -26 l48 0 3 38 3 37 20
-37 c17 -35 22 -38 62 -38 l43 0 0 110 0 110 -45 0 -45 0 0 -37z m-452 -121
c2 -7 -3 -12 -12 -12 -9 0 -16 7 -16 16 0 17 22 14 28 -4z"/>
<path d="M1850 359 l0 -99 80 0 c43 0 91 5 105 12 23 10 25 16 25 84 0 89 -1
89 -122 97 l-88 5 0 -99z m107 -31 c-2 -18 -4 -6 -4 27 0 33 2 48 4 33 2 -15
2 -42 0 -60z"/>
<path d="M2150 452 c-46 -5 -56 -15 -64 -61 -9 -60 2 -100 35 -116 37 -19 112
-19 149 0 28 15 30 19 30 79 0 47 -4 67 -17 78 -20 17 -81 27 -133 20z m50
-93 c0 -37 -4 -58 -10 -54 -18 11 -12 115 7 115 2 0 3 -27 3 -61z"/>
<path d="M2390 340 c0 -18 7 -20 60 -20 53 0 60 2 60 20 0 18 -7 20 -60 20
-53 0 -60 -2 -60 -20z"/>
</g>
</svg>
